<svg width="713" height="275" viewBox="0 0 713 275" fill="none" xmlns="http://www.w3.org/2000/svg">
<path d="M192.25 165L178.891 114.75H192.672L200.266 152.016H200.547L209.453 114.75H222.578L231.531 152.016H231.812L239.453 114.75H252.953L239.641 165H225.062L215.969 129.469H215.688L206.641 165H192.25ZM258.625 165V97.3594H272.312V123.422H272.594C273.906 120.297 275.859 117.906 278.453 116.25C281.078 114.562 284.266 113.719 288.016 113.719C291.672 113.719 294.812 114.531 297.438 116.156C300.062 117.75 302.078 120.016 303.484 122.953C304.922 125.891 305.641 129.391 305.641 133.453V165H291.953V136.266C291.953 132.766 291.109 130.031 289.422 128.062C287.766 126.062 285.375 125.062 282.25 125.062C280.25 125.062 278.5 125.547 277 126.516C275.531 127.453 274.375 128.766 273.531 130.453C272.719 132.109 272.312 134.031 272.312 136.219V165H258.625ZM337.516 166.031C332.422 166.031 328.016 164.984 324.297 162.891C320.578 160.797 317.703 157.797 315.672 153.891C313.641 149.984 312.625 145.312 312.625 139.875V139.781C312.625 134.375 313.656 129.734 315.719 125.859C317.781 121.953 320.672 118.953 324.391 116.859C328.109 114.766 332.469 113.719 337.469 113.719C342.5 113.719 346.875 114.766 350.594 116.859C354.344 118.922 357.25 121.906 359.312 125.812C361.375 129.688 362.406 134.344 362.406 139.781V139.875C362.406 145.344 361.375 150.031 359.312 153.938C357.281 157.844 354.406 160.844 350.688 162.938C346.969 165 342.578 166.031 337.516 166.031ZM337.562 155.297C339.781 155.297 341.703 154.703 343.328 153.516C344.984 152.297 346.25 150.547 347.125 148.266C348.031 145.953 348.484 143.156 348.484 139.875V139.781C348.484 136.531 348.031 133.766 347.125 131.484C346.219 129.203 344.938 127.469 343.281 126.281C341.625 125.062 339.688 124.453 337.469 124.453C335.281 124.453 333.359 125.062 331.703 126.281C330.078 127.469 328.812 129.203 327.906 131.484C327 133.766 326.547 136.531 326.547 139.781V139.875C326.547 143.156 326.984 145.953 327.859 148.266C328.766 150.547 330.047 152.297 331.703 153.516C333.359 154.703 335.312 155.297 337.562 155.297ZM371.031 143.484V131.531H401.406V143.484H371.031ZM426.812 165.797C423.469 165.797 420.531 165.156 418 163.875C415.469 162.562 413.484 160.766 412.047 158.484C410.641 156.172 409.938 153.547 409.938 150.609V150.516C409.938 147.453 410.703 144.844 412.234 142.688C413.766 140.5 415.984 138.781 418.891 137.531C421.797 136.281 425.328 135.516 429.484 135.234L449.078 134.016V142.547L431.547 143.672C428.922 143.828 426.922 144.453 425.547 145.547C424.172 146.609 423.484 148.031 423.484 149.812V149.906C423.484 151.75 424.188 153.203 425.594 154.266C427 155.297 428.891 155.812 431.266 155.812C433.297 155.812 435.109 155.422 436.703 154.641C438.328 153.828 439.594 152.734 440.5 151.359C441.438 149.953 441.906 148.375 441.906 146.625V131.391C441.906 129.172 441.203 127.422 439.797 126.141C438.391 124.828 436.344 124.172 433.656 124.172C431.094 124.172 429.062 124.703 427.562 125.766C426.062 126.828 425.141 128.172 424.797 129.797L424.703 130.219H412.188L412.234 129.656C412.484 126.562 413.5 123.812 415.281 121.406C417.094 119 419.594 117.125 422.781 115.781C426 114.406 429.812 113.719 434.219 113.719C438.562 113.719 442.328 114.422 445.516 115.828C448.703 117.203 451.172 119.156 452.922 121.688C454.703 124.219 455.594 127.172 455.594 130.547V165H441.906V157.5H441.625C440.688 159.219 439.469 160.703 437.969 161.953C436.5 163.172 434.828 164.125 432.953 164.812C431.078 165.469 429.031 165.797 426.812 165.797ZM485.125 166.031C480.5 166.031 476.562 165.359 473.312 164.016C470.062 162.672 467.516 160.812 465.672 158.438C463.859 156.031 462.766 153.25 462.391 150.094L462.344 149.672H475.703L475.797 150.094C476.234 152.062 477.219 153.594 478.75 154.688C480.281 155.781 482.406 156.328 485.125 156.328C486.875 156.328 488.359 156.125 489.578 155.719C490.797 155.281 491.734 154.672 492.391 153.891C493.078 153.109 493.422 152.172 493.422 151.078V151.031C493.422 149.688 492.938 148.609 491.969 147.797C491 146.984 489.281 146.297 486.812 145.734L478.281 143.953C475.031 143.266 472.312 142.281 470.125 141C467.969 139.688 466.344 138.078 465.25 136.172C464.156 134.234 463.609 132.016 463.609 129.516V129.469C463.609 126.25 464.469 123.469 466.188 121.125C467.906 118.781 470.344 116.969 473.5 115.688C476.688 114.375 480.406 113.719 484.656 113.719C489.094 113.719 492.859 114.438 495.953 115.875C499.078 117.281 501.469 119.188 503.125 121.594C504.812 124 505.703 126.672 505.797 129.609V130.078H493.188L493.141 129.703C492.922 127.891 492.078 126.391 490.609 125.203C489.172 123.984 487.188 123.375 484.656 123.375C483.094 123.375 481.734 123.594 480.578 124.031C479.422 124.469 478.531 125.094 477.906 125.906C477.281 126.688 476.969 127.625 476.969 128.719V128.766C476.969 129.609 477.172 130.375 477.578 131.062C478.016 131.719 478.734 132.297 479.734 132.797C480.734 133.297 482.078 133.734 483.766 134.109L492.297 135.938C497.578 137.031 501.359 138.672 503.641 140.859C505.953 143.047 507.109 145.984 507.109 149.672V149.719C507.109 153 506.172 155.859 504.297 158.297C502.422 160.734 499.828 162.641 496.516 164.016C493.234 165.359 489.438 166.031 485.125 166.031ZM514.328 165V97.3594H528.016V165H514.328ZM545.922 165L530.406 142.781L539.078 132.375L561.719 165H545.922ZM526.328 150.188V134.859H528.297L545.266 114.75H560.781L537.578 141.141H534.531L526.328 150.188ZM586.047 166.031C580.922 166.031 576.516 164.984 572.828 162.891C569.141 160.766 566.297 157.75 564.297 153.844C562.328 149.938 561.344 145.312 561.344 139.969V139.922C561.344 134.578 562.328 129.953 564.297 126.047C566.297 122.109 569.094 119.078 572.688 116.953C576.312 114.797 580.578 113.719 585.484 113.719C590.391 113.719 594.625 114.766 598.188 116.859C601.781 118.922 604.547 121.844 606.484 125.625C608.453 129.406 609.438 133.828 609.438 138.891V143.109H568.047V134.484H602.969L596.453 142.547V137.297C596.453 134.359 596 131.906 595.094 129.938C594.188 127.938 592.922 126.438 591.297 125.438C589.703 124.438 587.844 123.938 585.719 123.938C583.594 123.938 581.703 124.453 580.047 125.484C578.422 126.516 577.141 128.031 576.203 130.031C575.297 132 574.844 134.422 574.844 137.297V142.594C574.844 145.375 575.297 147.75 576.203 149.719C577.141 151.688 578.469 153.203 580.188 154.266C581.906 155.297 583.953 155.812 586.328 155.812C588.203 155.812 589.828 155.516 591.203 154.922C592.578 154.328 593.703 153.578 594.578 152.672C595.453 151.766 596.047 150.844 596.359 149.906L596.453 149.625H609.016L608.875 150.141C608.5 151.984 607.766 153.844 606.672 155.719C605.578 157.594 604.094 159.312 602.219 160.875C600.375 162.438 598.109 163.688 595.422 164.625C592.766 165.562 589.641 166.031 586.047 166.031ZM635.125 166.031C630.906 166.031 627.266 164.984 624.203 162.891C621.141 160.797 618.781 157.797 617.125 153.891C615.5 149.984 614.688 145.312 614.688 139.875V139.828C614.688 134.359 615.516 129.688 617.172 125.812C618.828 121.906 621.172 118.922 624.203 116.859C627.266 114.766 630.906 113.719 635.125 113.719C637.5 113.719 639.688 114.109 641.688 114.891C643.688 115.672 645.438 116.797 646.938 118.266C648.469 119.703 649.688 121.438 650.594 123.469H650.875V97.3594H664.562V165H650.875V156.422H650.594C649.719 158.422 648.531 160.141 647.031 161.578C645.531 162.984 643.781 164.078 641.781 164.859C639.781 165.641 637.562 166.031 635.125 166.031ZM639.719 154.688C641.938 154.688 643.891 154.094 645.578 152.906C647.266 151.688 648.578 149.969 649.516 147.75C650.453 145.531 650.922 142.906 650.922 139.875V139.828C650.922 136.797 650.438 134.188 649.469 132C648.531 129.781 647.219 128.078 645.531 126.891C643.875 125.672 641.938 125.062 639.719 125.062C637.438 125.062 635.469 125.656 633.812 126.844C632.156 128.031 630.875 129.734 629.969 131.953C629.062 134.141 628.609 136.766 628.609 139.828V139.875C628.609 142.906 629.047 145.531 629.922 147.75C630.828 149.969 632.109 151.688 633.766 152.906C635.453 154.094 637.438 154.688 639.719 154.688Z" fill="#F44336"/>
<path d="M83.0312 217.688C91.7297 217.688 98.7812 210.552 98.7812 201.75C98.7812 192.948 91.7297 185.812 83.0312 185.812C74.3328 185.812 67.2812 192.948 67.2812 201.75C67.2812 210.552 74.3328 217.688 83.0312 217.688Z" fill="#CC3333"/>
<path d="M80.9314 215.43C88.3975 215.43 94.4501 209.305 94.4501 201.75C94.4501 194.195 88.3975 188.07 80.9314 188.07C73.4652 188.07 67.4126 194.195 67.4126 201.75C67.4126 209.305 73.4652 215.43 80.9314 215.43Z" fill="#F44336"/>
<path opacity="0.2" d="M73.3186 196.969C74.8936 194.578 78.3061 192.586 81.8498 192.055C82.7686 191.922 83.5561 191.922 84.3436 192.187C84.8686 192.453 85.3936 192.984 84.9998 193.515C84.7373 194.047 84.0811 194.18 83.5561 194.312C80.2748 195.242 77.2561 197.5 75.4186 200.156C74.7623 201.219 73.5811 204.008 72.2686 203.344C70.9561 202.414 71.2186 199.89 73.3186 196.969Z" fill="white"/>
<path d="M61.5064 85.2734C58.7502 87.9297 57.0439 91.1172 56.2564 95.1016C55.8627 97.625 53.6314 99.3516 51.1377 99.3516H60.1939C62.6877 99.3516 64.9189 97.625 65.3127 95.1016C65.9689 91.1172 67.8064 87.9297 70.5627 85.2734C73.3189 82.75 76.7314 81.1563 80.8002 80.4922C79.3564 80.2266 77.7814 80.0938 76.2064 80.0938C70.1689 80.2266 65.3127 81.9531 61.5064 85.2734Z" fill="#CC3333"/>
<path d="M118.469 69.2031C110.463 61.8984 99.4377 58.3125 85.2627 58.3125C83.6877 58.3125 82.2439 58.3125 80.8002 58.4453C92.7439 59.1094 102.325 62.6953 109.413 69.2031C117.419 76.5078 121.356 86.7344 121.356 99.75C121.356 111.438 115.975 122.859 105.344 134.148L92.4814 146.898L92.0877 147.297C88.2814 151.813 86.0502 157.922 85.2627 165.758C85.0002 168.414 82.7689 170.539 80.0127 170.539H89.0689C91.6939 170.539 94.0564 168.414 94.3189 165.758C94.9752 157.922 97.3377 151.813 101.144 147.297L101.538 146.898L114.4 134.148C125.163 122.859 130.413 111.438 130.413 99.75C130.281 86.7344 126.344 76.5078 118.469 69.2031Z" fill="#CC3333"/>
<path d="M85.2625 165.891C85.9187 158.055 88.2812 151.945 92.0875 147.43L92.4812 147.031L105.344 134.281C116.106 122.992 121.356 111.57 121.356 99.8828C121.356 86.8672 117.419 76.6406 109.412 69.3359C102.325 62.8281 92.875 59.2422 80.8 58.5781C69.1187 59.2422 59.5375 62.9609 52.0562 69.4687C45.1 75.5781 40.9 83.5469 39.7187 93.5078C39.325 96.6953 41.8187 99.3516 44.9687 99.3516H51.2687C53.7625 99.3516 55.9937 97.625 56.3875 95.1016C57.0437 91.1172 58.8812 87.9297 61.6375 85.2734C65.3125 81.8203 70.3 80.0938 76.3375 80.0938C77.9125 80.0938 79.4875 80.2266 80.9312 80.4922C82.375 80.2266 83.8187 80.0938 85.3937 80.0938C91.6937 80.0938 96.55 81.8203 99.8312 85.4063C103.112 88.9922 104.819 94.0391 104.819 100.68C104.819 105.727 103.375 110.508 100.619 114.758C98.7812 117.68 94.45 122.461 87.4937 129.234C80.6687 136.008 75.9437 142.25 73.7125 147.828C71.875 152.344 70.6937 158.055 70.4312 164.961C70.3 168.016 72.6625 170.539 75.6812 170.539H80.275C82.6375 170.672 85 168.547 85.2625 165.891Z" fill="#F44336"/>
<path opacity="0.2" d="M52.9749 74.1173C57.4374 68.5392 65.9686 64.5548 74.4999 64.0236C76.5999 63.8908 78.6999 64.0236 80.4061 64.9533C81.7186 65.6173 82.6374 67.0783 81.7186 68.4064C80.9311 69.4689 79.3561 69.8673 78.0436 70.133C70.0374 71.7267 62.2936 76.3752 57.1749 82.4845C55.2061 84.8752 51.9249 91.5158 49.0374 89.3908C46.0186 86.8673 47.4624 80.8908 52.9749 74.1173Z" fill="white"/>
</svg>
